<?xml version="1.0" encoding="utf-8"?>
<!-- Generator: Adobe Illustrator 25.4.1, SVG Export Plug-In . SVG Version: 6.00 Build 0)  -->
<svg version="1.1" id="Layer_1" xmlns="http://www.w3.org/2000/svg" xmlns:xlink="http://www.w3.org/1999/xlink" x="0px" y="0px"
	 viewBox="0 0 255.7 68.2" style="enable-background:new 0 0 255.7 68.2;" xml:space="preserve">
<style type="text/css">
	.st0{fill:#FFE600;}
	.st1{clip-path:url(#SVGID_00000106115470095620289910000011802455302443888030_);}
	.st2{clip-path:url(#SVGID_00000067238144496602216750000007413910531776548264_);}
	.st3{fill:#15154B;}
	.st4{fill:#F8485E;}
	svg {
		shape-rendering: geometricPrecision;
	}
</style>
<polygon class="st0" points="193.9,0 142.7,19.3 142.7,19.3 193.9,10 "/>
<polygon points="177,27 172.7,35.5 168.3,27 159.7,27 168.8,42.7 168.8,52.9 176.5,52.9 176.5,42.7 185.5,27 "/>
<polygon points="150.4,42.7 159.7,42.7 159.7,37.3 150.4,37.3 150.4,33 160.7,33 157.3,27 142.7,27 142.7,52.9 163.3,52.9 163.3,47
	150.4,47 "/>
<g>
	<g>
		<defs>
			<rect id="SVGID_1_" x="184.7" y="46" width="71" height="10"/>
		</defs>
		<clipPath id="SVGID_00000109750397883697907500000001192656070131171747_">
			<use xlink:href="#SVGID_1_"  style="overflow:visible;"/>
		</clipPath>
		<g style="clip-path:url(#SVGID_00000109750397883697907500000001192656070131171747_);">
			<path d="M242.5,51.9c-0.4,0-0.9-0.3-0.9-1.6c0-1.2,0.5-1.4,0.9-1.4c0.5,0,0.7,0.3,0.9,0.5v2C243.2,51.7,242.9,51.9,242.5,51.9z
				 M243.4,48.3c-0.3-0.3-0.7-0.5-1.1-0.5c-1.2,0-2,1-2,2.6c0,1.7,0.7,2.7,1.9,2.7c0.4,0,0.8-0.2,1.1-0.5V53h1.2v-7.1l-1.2,0.6
				L243.4,48.3L243.4,48.3z"/>
			<polygon points="238.2,46.4 239.4,45.8 239.4,48.4 239.4,53 238.2,53 			"/>
			<path d="M237.3,49.3c-0.3-0.1-0.6-0.3-0.9-0.3c-0.6,0-0.9,0.4-0.9,1.2V53h-1.2v-5h1.2v0.4c0.3-0.4,0.7-0.5,1.1-0.5
				c0.3,0,0.7,0.1,0.9,0.3L237.3,49.3z"/>
			<path d="M231.3,51.9c-0.6,0-1-0.6-1-1.5s0.4-1.5,1-1.5c0.6,0,1,0.6,1,1.5S231.9,51.9,231.3,51.9z M231.3,47.8
				c-1.3,0-2.3,1.1-2.3,2.6s1,2.6,2.3,2.6s2.3-1.1,2.3-2.6C233.5,48.9,232.6,47.8,231.3,47.8z"/>
			<path d="M227.5,47.9h1.2l-1.4,5h-1.1l-0.5-2c-0.1-0.4-0.2-0.8-0.3-1.1c0,0.2-0.2,0.8-0.3,1.1l-0.5,2.1h-1.1l0,0l-1.4-5h1.3
				l0.5,1.9c0.1,0.3,0.2,0.9,0.3,1.2c0.1-0.4,0.2-0.9,0.3-1.3l0.5-1.9h1.1l0.5,1.9c0.1,0.3,0.2,0.9,0.3,1.3c0.1-0.3,0.2-0.8,0.3-1.3
				L227.5,47.9z"/>
			<path d="M217.9,49.4v2c-0.2,0.3-0.4,0.5-0.9,0.5c-0.4,0-0.9-0.3-0.9-1.6c0-1.2,0.5-1.4,0.9-1.4C217.5,48.9,217.8,49.2,217.9,49.4
				z M217.9,48.3c-0.3-0.3-0.7-0.5-1.1-0.5c-1.2,0-2,1-2,2.6c0,1.7,0.7,2.7,1.9,2.7c0.4,0,0.8-0.2,1.1-0.5v0.1c0,0.6,0,1.3-1.6,1.3
				h-0.1l0.4,1l0,0c1.6,0,2.4-0.8,2.4-2.5v-4.6h-1.2v0.4H217.9z"/>
			<path d="M210.9,53h-1.2v-5h1.2v0.4c0.3-0.3,0.7-0.5,1.3-0.5c1.2,0,1.8,0.8,1.8,2.3V53h-1.2v-2.8c0-0.8-0.3-1.2-0.9-1.2
				c-0.6,0-0.9,0.4-0.9,1.2V53C211,53,210.9,53,210.9,53z"/>
			<polygon points="208.6,46.6 208.6,47.2 207.4,47.2 207.4,46 208.6,46 			"/>
			<polygon points="207.3,47.9 208.5,47.9 208.5,50.1 208.5,53 207.3,53 			"/>
			<path d="M205,49.6l1.5,3.4h-1.4l-1.1-2.3l-0.7,0.8V53h-1.2v-6.5l1.2-0.6v4c0.2-0.2,0.3-0.5,0.5-0.6l1-1.3h1.4L205,49.6z"/>
			<path d="M201.4,49.3c-0.2-0.2-0.5-0.3-0.8-0.3c-0.6,0-0.9,0.4-0.9,1.2V53h-1.2v-5h1.2v0.4c0.3-0.4,0.7-0.5,1.1-0.5
				c0.3,0,0.7,0.1,0.9,0.3L201.4,49.3z"/>
			<path d="M195.4,51.9c-0.6,0-1-0.6-1-1.5s0.4-1.5,1-1.5c0.6,0,1,0.6,1,1.5S196,51.9,195.4,51.9z M195.4,47.8
				c-1.3,0-2.3,1.1-2.3,2.6s1,2.6,2.3,2.6c1.3,0,2.3-1.1,2.3-2.6S196.7,47.8,195.4,47.8z"/>
			<path d="M191.6,47.9h1.2l-1.4,5h-1.1l-0.6-2.1c-0.1-0.4-0.2-0.8-0.3-1.1c0,0.2-0.2,0.8-0.3,1.1l-0.4,2.1h-1l-1.4-5h1.3l0.5,1.9
				c0.1,0.3,0.2,0.9,0.3,1.2c0.1-0.4,0.2-0.9,0.3-1.3l0.5-1.9h1.1l0.5,1.9c0.1,0.3,0.2,0.9,0.3,1.3c0.1-0.3,0.2-0.8,0.3-1.3
				L191.6,47.9z"/>
		</g>
	</g>
</g>
<g>
	<g>
		<defs>
			<rect id="SVGID_00000124148959024898764480000017097046293092587923_" x="184.7" y="36" width="71" height="10"/>
		</defs>
		<clipPath id="SVGID_00000143609847762430241770000011731920638720151478_">
			<use xlink:href="#SVGID_00000124148959024898764480000017097046293092587923_"  style="overflow:visible;"/>
		</clipPath>
		<g style="clip-path:url(#SVGID_00000143609847762430241770000011731920638720151478_);">
			<path d="M255.4,40.5c-0.2-0.2-0.5-0.3-0.8-0.3c-0.6,0-0.9,0.4-0.9,1.2v2.7h-1.2v-5h1.2v0.4c0.3-0.4,0.7-0.5,1.1-0.5
				c0.3,0,0.7,0.1,0.9,0.3L255.4,40.5z"/>
			<path d="M248.6,41.1c0-0.6,0.4-1,0.9-1c0.7,0,0.9,0.5,0.9,1H248.6z M250.6,42.7c-0.2,0.2-0.5,0.4-1,0.4c-0.2,0-1-0.1-1.1-1.1h3.1
				c0-0.1,0-0.3,0-0.4c0-1.6-0.8-2.6-2.1-2.6s-2.2,1.1-2.2,2.6c0,1.6,0.9,2.6,2.4,2.6c0.7,0,1.3-0.3,1.8-0.8L250.6,42.7z"/>
			<path d="M245.6,42.4c0,0.4,0.2,0.7,0.5,0.7s0.5-0.1,0.7-0.2l-0.1,1.1c-0.3,0.2-0.6,0.2-1,0.2c-1,0-1.3-0.8-1.3-1.5v-2.4h-0.8
				v-1.2h0.8v-1.3l1.2-0.6v1.9h1.1v1.2h-1.1C245.6,40.3,245.6,42.4,245.6,42.4z"/>
			<path d="M243.2,44c-0.3,0.2-0.6,0.2-1,0.2c-1,0-1.3-0.8-1.3-1.5v-2.4h-0.8v-1.2h0.8v-1.3l1.2-0.6v1.9h1.1v1.2h-1.1v2.1
				c0,0.4,0.2,0.7,0.5,0.7s0.5-0.1,0.7-0.2L243.2,44z"/>
			<path d="M236.6,41.1c0-0.6,0.4-1,0.9-1c0.7,0,0.9,0.5,0.9,1H236.6z M238.7,42.7c-0.2,0.2-0.5,0.4-1,0.4c-0.2,0-1.1-0.1-1.1-1.1
				h3.1c0-0.1,0-0.3,0-0.4c0-1.6-0.8-2.6-2.1-2.6c-1.3,0-2.2,1.1-2.2,2.6c0,1.6,0.9,2.6,2.4,2.6c0.7,0,1.3-0.3,1.8-0.8L238.7,42.7z"
				/>
			<path d="M232.6,40.1c0.5,0,0.9,0.4,0.9,1.4s-0.3,1.6-0.9,1.6c-0.5,0-0.8-0.3-0.9-0.5v-2C231.9,40.3,232.2,40.1,232.6,40.1z
				 M232.8,39c-0.4,0-0.8,0.2-1.1,0.5v-2.3l-1.2,0.6v6.4h1.2v-0.4c0.3,0.3,0.7,0.5,1.1,0.5c1.2,0,1.9-1,1.9-2.7
				C234.8,40,234,39,232.8,39z"/>
			<path d="M224.2,42.5c0-0.4,0.3-0.7,0.9-0.7c0.4,0,0.7,0.1,1,0.2v0.7c-0.2,0.3-0.5,0.5-1,0.5C224.5,43.2,224.2,42.9,224.2,42.5z
				 M223.8,40.3c0.4-0.2,0.8-0.3,1.3-0.3c0.6,0,0.9,0.2,0.9,0.7V41c-0.3-0.1-0.7-0.2-1.1-0.2c-0.9,0-2,0.4-2,1.7
				c0,1.3,1,1.8,1.9,1.8c0.4,0,0.9-0.1,1.2-0.5v0.4h1.2v-3.4c0-1.1-0.8-1.7-2-1.7c-0.7,0-1.3,0.2-1.9,0.5L223.8,40.3z"/>
			<path d="M218.7,40.6v2c-0.2,0.3-0.4,0.5-0.9,0.5c-0.4,0-0.9-0.3-0.9-1.6c0-1.2,0.5-1.4,0.9-1.4C218.3,40.1,218.6,40.4,218.7,40.6
				z M218.7,39.5c-0.3-0.3-0.7-0.5-1.1-0.5c-1.2,0-2,1-2,2.6c0,1.7,0.7,2.7,1.9,2.7c0.4,0,0.8-0.2,1.1-0.5v0.1c0,0.6,0,1.3-1.6,1.3
				h-0.1l0.4,1l0,0c1.6,0,2.4-0.9,2.4-2.5v-4.6h-1C218.7,39.1,218.7,39.5,218.7,39.5z"/>
			<path d="M211.8,44.1h-1.2v-5h1.2v0.4c0.3-0.3,0.7-0.5,1.3-0.5c1.2,0,1.8,0.8,1.8,2.3v2.8h-1.2v-2.8c0-0.8-0.3-1.2-0.9-1.2
				c-0.6,0-0.9,0.4-0.9,1.2L211.8,44.1L211.8,44.1z"/>
			<polygon points="209.4,37.8 209.4,38.4 208.2,38.4 208.2,37.2 209.4,37.2 			"/>
			<polygon points="208.2,39.1 209.4,39.1 209.4,40.7 209.4,44.1 208.2,44.1 			"/>
			<path d="M205,43.1c-0.4,0-0.9-0.3-0.9-1.6c0-1.2,0.5-1.4,0.9-1.4c0.5,0,0.7,0.3,0.9,0.5v2C205.6,42.9,205.4,43.1,205,43.1z
				 M205.8,39.5c-0.3-0.3-0.7-0.5-1.1-0.5c-1.2,0-2,1-2,2.6c0,1.7,0.7,2.7,1.9,2.7c0.4,0,0.8-0.2,1.1-0.5v0.4h1.2V37l-1.2,0.6
				L205.8,39.5L205.8,39.5z"/>
			<polygon points="200.7,37.6 201.9,37 201.9,40.8 201.9,44.2 200.7,44.2 			"/>
			<polygon points="199.6,37.8 199.6,38.4 198.4,38.4 198.4,37.2 199.6,37.2 			"/>
			<polygon points="199.6,40.9 199.6,44.2 198.4,44.2 198.4,39.2 199.6,39.2 			"/>
			<path d="M192.9,42v-2.8h1.2V42c0,0.8,0.3,1.2,0.9,1.2s0.9-0.4,0.9-1.2v-2.8h1.2v5h-1.2v-0.4c-0.3,0.3-0.7,0.5-1.2,0.5
				C193.1,44.3,192.9,42.8,192.9,42z"/>
			<path d="M189.6,39.9H188v-1.5h1.5c0.6,0,0.9,0.2,0.9,0.7C190.5,39.5,190.3,39.9,189.6,39.9z M189.6,43H188v-2h1.6
				c0.7,0,1,0.3,1,1C190.7,42.6,190.3,43,189.6,43z M192,41.9c0-1-0.7-1.4-1-1.5c0.5-0.3,0.8-0.8,0.8-1.4c0-1.1-0.8-1.8-2.1-1.8h-3
				v6.9h2.9C191.1,44.1,192,43.3,192,41.9z"/>
		</g>
	</g>
</g>
<path class="st3" d="M14,44.3h5.3v8.6H14V44.3z"/>
<path class="st3" d="M0,27h5.3v25.9H0V27z"/>
<path class="st3" d="M62.8,27H68v25.9h-5.3C62.8,52.9,62.8,27,62.8,27z"/>
<path class="st3" d="M34.3,52.9H29L14,27h5.3L34.3,52.9z"/>
<path class="st3" d="M55.6,27L44.9,44.3L34.3,27H55.6z"/>
<path class="st3" d="M79.1,29.3c-3,3-3,8,0,11l11-11C87,26.3,82.1,26.3,79.1,29.3"/>
<path class="st4" d="M112.6,65.7v-4.5c0-0.6-0.1-1.1-0.3-1.3h1.7c1.2,0,1.8,0.4,1.8,1.8v4h0.8v-4.3c0-2.2-1.7-2.2-2.6-2.2
	c-0.5,0-1.4,0.1-2.3,0.2c-0.4-0.2-1-0.2-1.6-0.2s-1.6,0.1-2.5,0.2v6.3h0.8v-5.8h1.8c1.1,0,1.4,0.4,1.4,1.8v4.1h0.9V65.7z
	 M105.2,62.5v2.6h-2.6c-0.9,0-1.3-0.3-1.3-1.1v-0.2c0-0.9,0.6-1.2,1.4-1.2H105.2L105.2,62.5z M106.1,61.3c0-1.9-1-2.2-2.5-2.2
	c-0.6,0-1.4,0-2.1,0.1v0.5h2.2c1.1,0,1.6,0.4,1.6,1.6v0.6c-1.2-0.2-2.2-0.2-2.5-0.2c-1.3,0-2.3,0.4-2.3,2.2s1,1.9,2.5,1.9
	c0.6,0,2-0.1,3.1-0.2V61.3L106.1,61.3z M95.3,61.8c0-1,0.3-2,1.8-2h0.4c1.3,0,1.6,0.9,1.6,1.9v0.4h-3.7V61.8L95.3,61.8z M97.3,59.1
	c-2.2,0-2.8,1.2-2.8,3.4s0.5,3.2,2.7,3.2c0.6,0,1.6-0.1,2.2-0.2V65h-2.1c-1.6,0-2-0.7-2-2v-0.3h3.9c0.4,0,0.6-0.3,0.6-0.6v-0.4
	C99.8,60,99,59.1,97.3,59.1 M90.9,59.9h2.2v-0.6h-2.2v-1.8h-0.5l-0.3,1.8l-1.2,0.1v0.5h1.2v4.1c0,1.1,0.3,1.9,1.8,1.9
	c0.4,0,1.1-0.1,1.7-0.2v-0.5h-1.4c-0.8,0-1.1-0.2-1.1-1.1V59.9L90.9,59.9z M82.2,62.5c0,2.7,1,3.3,2.8,3.3h0.2
	c1.7,0,2.7-0.7,2.7-3.3s-1-3.3-2.7-3.3H85C83.3,59.1,82.2,59.9,82.2,62.5 M87.1,62.8c0,1.3-0.3,2.3-1.8,2.3H85
	c-1.6,0-1.8-0.9-1.8-2.4v-0.4c0-1.6,0.3-2.4,1.9-2.4h0.3c1.6,0,1.9,0.9,1.9,2.4L87.1,62.8L87.1,62.8z M78.4,64.6l-2.3-5.3h-0.8
	l2.7,6.4h0.8l2.6-6.4h-0.8L78.4,64.6L78.4,64.6z M70.3,61.8c0-1,0.3-2,1.8-2h0.4c1.3,0,1.6,0.9,1.6,1.9v0.4h-3.7V61.8L70.3,61.8z
	 M72.3,59.1c-2.2,0-2.8,1.2-2.8,3.4s0.5,3.2,2.7,3.2c0.6,0,1.6-0.1,2.2-0.2V65h-2.1c-1.6,0-2-0.7-2-2v-0.3h3.9
	c0.4,0,0.6-0.3,0.6-0.6v-0.4C74.9,60,74.1,59.1,72.3,59.1 M67.1,59.8v5.3h-1.9c-1.3,0-1.9-0.6-1.9-2.4v-0.5c0-1.3,0.3-2.3,1.9-2.3
	h1.9V59.8z M67.9,56.9h-0.8v2.4c-0.9-0.1-1.4-0.2-2-0.2c-1.4,0-2.6,0.5-2.6,3.4c0,3,1.1,3.2,2.8,3.2c0.6,0,1.4,0,2.7-0.2L67.9,56.9z
	 M54.5,68.2l3.3-9H57l-2.1,5.6h-0.1l-2.2-5.6h-0.8l2.5,6.4h0.3l-0.9,2.6H54.5z M48.3,59.8c1.6,0,1.9,0.8,1.9,2.3v0.6
	c0,1.8-0.4,2.4-1.9,2.4h-1.9v-5.3C46.4,59.8,48.3,59.8,48.3,59.8z M45.6,65.6c1.1,0.1,2.1,0.2,2.7,0.2c1.7,0,2.8-0.4,2.8-3.4
	c0-2.8-1.1-3.3-2.6-3.3c-0.5,0-1,0-2,0.2v-2.4h-0.8L45.6,65.6z"/>
<path class="st3" d="M75.3,50.1c4,3.7,10.5,3.6,14.4-0.3s4-10.3,0.3-14.4L75.3,50.1z"/>
<path class="st3" d="M116.9,44.1c0,4.9-3.9,8.7-8.7,8.7s-8.7-3.9-8.7-8.7s3.9-8.7,8.7-8.7S116.9,39.3,116.9,44.1"/>
</svg>
