<?xml version="1.0" encoding="utf-8"?>
<!-- Generator: Adobe Illustrator 25.4.1, SVG Export Plug-In . SVG Version: 6.00 Build 0)  -->
<svg version="1.1" id="Layer_1" xmlns="http://www.w3.org/2000/svg" xmlns:xlink="http://www.w3.org/1999/xlink" x="0px" y="0px"
	 viewBox="0 0 113 108" style="enable-background:new 0 0 113 108;" xml:space="preserve">
<style type="text/css">
	.st0{fill:#FFE600;}
	.st1{clip-path:url(#SVGID_00000018224039222496032980000000239865233618193803_);}
	.st2{clip-path:url(#SVGID_00000116197112342196554450000010912349332409974411_);}
	.st3{fill:#15154B;}
	.st4{fill:#F8485E;}
	svg {
		shape-rendering: geometricPrecision;
	}
</style>
<polygon class="st0" points="51.2,53 0,72.3 0,72.3 51.2,63 "/>
<polygon points="34.3,80 30,88.5 25.6,80 17,80 26.1,95.7 26.1,105.9 33.8,105.9 33.8,95.7 42.8,80 "/>
<polygon points="7.7,95.7 17,95.7 17,90.3 7.7,90.3 7.7,86 18,86 14.6,80 0,80 0,105.9 20.6,105.9 20.6,100 7.7,100 "/>
<g>
	<defs>
		<rect id="SVGID_1_" x="42" y="99" width="71" height="10"/>
	</defs>
	<clipPath id="SVGID_00000083772213393790120070000012686568158610933173_">
		<use xlink:href="#SVGID_1_"  style="overflow:visible;"/>
	</clipPath>
	<g style="clip-path:url(#SVGID_00000083772213393790120070000012686568158610933173_);">
		<path d="M99.8,104.9c-0.4,0-0.9-0.3-0.9-1.6c0-1.2,0.5-1.4,0.9-1.4c0.5,0,0.7,0.3,0.9,0.5v2C100.5,104.7,100.2,104.9,99.8,104.9z
			 M100.7,101.3c-0.3-0.3-0.7-0.5-1.1-0.5c-1.2,0-2,1-2,2.6c0,1.7,0.7,2.7,1.9,2.7c0.4,0,0.8-0.2,1.1-0.5v0.4h1.2v-7.1l-1.2,0.6
			L100.7,101.3L100.7,101.3z"/>
		<polygon points="95.5,99.4 96.7,98.8 96.7,101.4 96.7,106 95.5,106 		"/>
		<path d="M94.6,102.3c-0.3-0.1-0.6-0.3-0.9-0.3c-0.6,0-0.9,0.4-0.9,1.2v2.8h-1.2v-5h1.2v0.4c0.3-0.4,0.7-0.5,1.1-0.5
			c0.3,0,0.7,0.1,0.9,0.3L94.6,102.3z"/>
		<path d="M88.6,104.9c-0.6,0-1-0.6-1-1.5s0.4-1.5,1-1.5s1,0.6,1,1.5C89.6,104.3,89.2,104.9,88.6,104.9z M88.6,100.8
			c-1.3,0-2.3,1.1-2.3,2.6s1,2.6,2.3,2.6s2.3-1.1,2.3-2.6C90.8,101.9,89.9,100.8,88.6,100.8z"/>
		<path d="M84.8,100.9H86l-1.4,5h-1.1l-0.5-2c-0.1-0.4-0.2-0.8-0.3-1.1c0,0.2-0.2,0.8-0.3,1.1l-0.5,2.1h-1.1l0,0l-1.4-5h1.3l0.5,1.9
			c0.1,0.3,0.2,0.9,0.3,1.2c0.1-0.4,0.2-0.9,0.3-1.3l0.5-1.9h1.1l0.5,1.9c0.1,0.3,0.2,0.9,0.3,1.3c0.1-0.3,0.2-0.8,0.3-1.3
			L84.8,100.9z"/>
		<path d="M75.2,102.4v2c-0.2,0.3-0.4,0.5-0.9,0.5c-0.4,0-0.9-0.3-0.9-1.6c0-1.2,0.5-1.4,0.9-1.4C74.8,101.9,75.1,102.2,75.2,102.4z
			 M75.2,101.3c-0.3-0.3-0.7-0.5-1.1-0.5c-1.2,0-2,1-2,2.6c0,1.7,0.7,2.7,1.9,2.7c0.4,0,0.8-0.2,1.1-0.5v0.1c0,0.6,0,1.3-1.6,1.3
			h-0.1l0.4,1l0,0c1.6,0,2.4-0.8,2.4-2.5v-4.6H75v0.4H75.2z"/>
		<path d="M68.2,106H67v-5h1.2v0.4c0.3-0.3,0.7-0.5,1.3-0.5c1.2,0,1.8,0.8,1.8,2.3v2.8h-1.2v-2.8c0-0.8-0.3-1.2-0.9-1.2
			s-0.9,0.4-0.9,1.2v2.8H68.2z"/>
		<polygon points="65.9,99.6 65.9,100.2 64.7,100.2 64.7,99 65.9,99 		"/>
		<polygon points="64.6,100.9 65.8,100.9 65.8,103.1 65.8,106 64.6,106 		"/>
		<path d="M62.3,102.6l1.5,3.4h-1.4l-1.1-2.3l-0.7,0.8v1.5h-1.2v-6.5l1.2-0.6v4c0.2-0.2,0.3-0.5,0.5-0.6l1-1.3h1.4L62.3,102.6z"/>
		<path d="M58.7,102.3c-0.2-0.2-0.5-0.3-0.8-0.3c-0.6,0-0.9,0.4-0.9,1.2v2.8h-1.2v-5H57v0.4c0.3-0.4,0.7-0.5,1.1-0.5
			c0.3,0,0.7,0.1,0.9,0.3L58.7,102.3z"/>
		<path d="M52.7,104.9c-0.6,0-1-0.6-1-1.5s0.4-1.5,1-1.5s1,0.6,1,1.5C53.7,104.3,53.3,104.9,52.7,104.9z M52.7,100.8
			c-1.3,0-2.3,1.1-2.3,2.6s1,2.6,2.3,2.6s2.3-1.1,2.3-2.6C55,101.9,54,100.8,52.7,100.8z"/>
		<path d="M48.9,100.9h1.2l-1.4,5h-1.1l-0.6-2.1c-0.1-0.4-0.2-0.8-0.3-1.1c0,0.2-0.2,0.8-0.3,1.1l-0.4,2.1h-1l-1.4-5h1.3l0.5,1.9
			c0.1,0.3,0.2,0.9,0.3,1.2c0.1-0.4,0.2-0.9,0.3-1.3l0.5-1.9h1.1l0.5,1.9c0.1,0.3,0.2,0.9,0.3,1.3c0.1-0.3,0.2-0.8,0.3-1.3
			L48.9,100.9z"/>
	</g>
</g>
<g>
	<defs>
		<rect id="SVGID_00000000913886762944322870000000702560064419968922_" x="42" y="89" width="71" height="10"/>
	</defs>
	<clipPath id="SVGID_00000047035711614118339430000009638861716131980427_">
		<use xlink:href="#SVGID_00000000913886762944322870000000702560064419968922_"  style="overflow:visible;"/>
	</clipPath>
	<g style="clip-path:url(#SVGID_00000047035711614118339430000009638861716131980427_);">
		<path d="M112.7,93.5c-0.2-0.2-0.5-0.3-0.8-0.3c-0.6,0-0.9,0.4-0.9,1.2v2.7h-1.2v-5h1.2v0.4c0.3-0.4,0.7-0.5,1.1-0.5
			c0.3,0,0.7,0.1,0.9,0.3L112.7,93.5z"/>
		<path d="M105.9,94.1c0-0.6,0.4-1,0.9-1c0.7,0,0.9,0.5,0.9,1H105.9z M107.9,95.7c-0.2,0.2-0.5,0.4-1,0.4c-0.2,0-1-0.1-1.1-1.1h3.1
			c0-0.1,0-0.3,0-0.4c0-1.6-0.8-2.6-2.1-2.6c-1.3,0-2.2,1.1-2.2,2.6c0,1.6,0.9,2.6,2.4,2.6c0.7,0,1.3-0.3,1.8-0.8L107.9,95.7z"/>
		<path d="M102.9,95.4c0,0.4,0.2,0.7,0.5,0.7s0.5-0.1,0.7-0.2L104,97c-0.3,0.2-0.6,0.2-1,0.2c-1,0-1.3-0.8-1.3-1.5v-2.4h-0.8v-1.2
			h0.8v-1.3l1.2-0.6v1.9h1.1v1.2h-1.1C102.9,93.3,102.9,95.4,102.9,95.4z"/>
		<path d="M100.5,97c-0.3,0.2-0.6,0.2-1,0.2c-1,0-1.3-0.8-1.3-1.5v-2.4h-0.8v-1.2h0.8v-1.3l1.2-0.6v1.9h1.1v1.2h-1.1v2.1
			c0,0.4,0.2,0.7,0.5,0.7s0.5-0.1,0.7-0.2L100.5,97z"/>
		<path d="M93.9,94.1c0-0.6,0.4-1,0.9-1c0.7,0,0.9,0.5,0.9,1H93.9z M96,95.7c-0.2,0.2-0.5,0.4-1,0.4c-0.2,0-1.1-0.1-1.1-1.1H97
			c0-0.1,0-0.3,0-0.4c0-1.6-0.8-2.6-2.1-2.6c-1.3,0-2.2,1.1-2.2,2.6c0,1.6,0.9,2.6,2.4,2.6c0.7,0,1.3-0.3,1.8-0.8L96,95.7z"/>
		<path d="M89.9,93.1c0.5,0,0.9,0.4,0.9,1.4s-0.3,1.6-0.9,1.6c-0.5,0-0.8-0.3-0.9-0.5v-2C89.2,93.3,89.5,93.1,89.9,93.1z M90.1,92
			c-0.4,0-0.8,0.2-1.1,0.5v-2.3l-1.2,0.6v6.4H89v-0.4c0.3,0.3,0.7,0.5,1.1,0.5c1.2,0,1.9-1,1.9-2.7C92.1,93,91.3,92,90.1,92z"/>
		<path d="M81.5,95.5c0-0.4,0.3-0.7,0.9-0.7c0.4,0,0.7,0.1,1,0.2v0.7c-0.2,0.3-0.5,0.5-1,0.5C81.8,96.2,81.5,95.9,81.5,95.5z
			 M81.1,93.3c0.4-0.2,0.8-0.3,1.3-0.3c0.6,0,0.9,0.2,0.9,0.7V94c-0.3-0.1-0.7-0.2-1.1-0.2c-0.9,0-2,0.4-2,1.7c0,1.3,1,1.8,1.9,1.8
			c0.4,0,0.9-0.1,1.2-0.5v0.4h1.2v-3.4c0-1.1-0.8-1.7-2-1.7c-0.7,0-1.3,0.2-1.9,0.5L81.1,93.3z"/>
		<path d="M76,93.6v2c-0.2,0.3-0.4,0.5-0.9,0.5c-0.4,0-0.9-0.3-0.9-1.6c0-1.2,0.5-1.4,0.9-1.4C75.6,93.1,75.9,93.4,76,93.6z
			 M76,92.5c-0.3-0.3-0.7-0.5-1.1-0.5c-1.2,0-2,1-2,2.6c0,1.7,0.7,2.7,1.9,2.7c0.4,0,0.8-0.2,1.1-0.5v0.1c0,0.6,0,1.3-1.6,1.3h-0.1
			l0.4,1l0,0c1.6,0,2.4-0.9,2.4-2.5v-4.6h-1C76,92.1,76,92.5,76,92.5z"/>
		<path d="M69.1,97.1h-1.2v-5h1.2v0.4c0.3-0.3,0.7-0.5,1.3-0.5c1.2,0,1.8,0.8,1.8,2.3v2.8H71v-2.8c0-0.8-0.3-1.2-0.9-1.2
			s-0.9,0.4-0.9,1.2L69.1,97.1L69.1,97.1z"/>
		<polygon points="66.7,90.8 66.7,91.4 65.5,91.4 65.5,90.2 66.7,90.2 		"/>
		<polygon points="65.5,92.1 66.7,92.1 66.7,93.7 66.7,97.1 65.5,97.1 		"/>
		<path d="M62.3,96.1c-0.4,0-0.9-0.3-0.9-1.6c0-1.2,0.5-1.4,0.9-1.4c0.5,0,0.7,0.3,0.9,0.5v2C62.9,95.9,62.7,96.1,62.3,96.1z
			 M63.1,92.5C62.8,92.2,62.4,92,62,92c-1.2,0-2,1-2,2.6c0,1.7,0.7,2.7,1.9,2.7c0.4,0,0.8-0.2,1.1-0.5v0.4h1.2V90L63,90.6L63.1,92.5
			L63.1,92.5z"/>
		<polygon points="58,90.6 59.2,90 59.2,93.8 59.2,97.2 58,97.2 		"/>
		<polygon points="56.9,90.8 56.9,91.4 55.7,91.4 55.7,90.2 56.9,90.2 		"/>
		<polygon points="56.9,93.9 56.9,97.2 55.7,97.2 55.7,92.2 56.9,92.2 		"/>
		<path d="M50.2,95v-2.8h1.2V95c0,0.8,0.3,1.2,0.9,1.2c0.6,0,0.9-0.4,0.9-1.2v-2.8h1.2v5h-1.2v-0.4c-0.3,0.3-0.7,0.5-1.2,0.5
			C50.4,97.3,50.2,95.8,50.2,95z"/>
		<path d="M46.9,92.9h-1.6v-1.5h1.5c0.6,0,0.9,0.2,0.9,0.7C47.8,92.5,47.6,92.9,46.9,92.9z M46.9,96h-1.6v-2h1.6c0.7,0,1,0.3,1,1
			C48,95.6,47.6,96,46.9,96z M49.3,94.9c0-1-0.7-1.4-1-1.5c0.5-0.3,0.8-0.8,0.8-1.4c0-1.1-0.8-1.8-2.1-1.8h-3v6.9h2.9
			C48.4,97.1,49.3,96.3,49.3,94.9z"/>
	</g>
</g>
<path class="st3" d="M13.6,16.7h5.1V25h-5.1V16.7z"/>
<path class="st3" d="M0.1,0h5.1v25H0.1V0z"/>
<path class="st3" d="M60.7,0h5.1v25h-5.1V0z"/>
<path class="st3" d="M33.2,25h-5.1L13.6,0h5.1L33.2,25z"/>
<path class="st3" d="M53.8,0L43.5,16.7L33.2,0H53.8z"/>
<path class="st3" d="M76.5,2.2c-2.9,2.9-2.9,7.7,0,10.6L87.1,2.2C84.1-0.7,79.4-0.7,76.5,2.2"/>
<path class="st4" d="M108.8,37.4v-4.3c0-0.6-0.1-1.1-0.3-1.3h1.6c1.2,0,1.7,0.4,1.7,1.7v3.9h0.8v-4.2c0-2.1-1.6-2.1-2.5-2.1
	c-0.5,0-1.4,0.1-2.2,0.2c-0.4-0.2-1-0.2-1.5-0.2c-0.5,0-1.5,0.1-2.4,0.2v6.1h0.8v-5.6h1.7c1.1,0,1.4,0.4,1.4,1.7v4H108.8L108.8,37.4
	z M101.7,34.3v2.5h-2.5c-0.9,0-1.3-0.3-1.3-1.1v-0.2c0-0.9,0.6-1.2,1.4-1.2L101.7,34.3L101.7,34.3z M102.5,33.1c0-1.8-1-2.1-2.4-2.1
	c-0.6,0-1.4,0-2,0.1v0.5h2.1c1.1,0,1.5,0.4,1.5,1.5v0.6c-1.2-0.2-2.1-0.2-2.4-0.2c-1.3,0-2.2,0.4-2.2,2.1c0,1.7,1,1.8,2.4,1.8
	c0.6,0,1.9-0.1,3-0.2L102.5,33.1L102.5,33.1z M92.1,33.6c0-1,0.3-1.9,1.7-1.9h0.4c1.3,0,1.5,0.9,1.5,1.8v0.4h-3.6L92.1,33.6
	L92.1,33.6z M94,31c-2.1,0-2.7,1.2-2.7,3.3c0,2.1,0.5,3.1,2.6,3.1c0.6,0,1.5-0.1,2.1-0.2v-0.5h-2c-1.5,0-1.9-0.7-1.9-1.9v-0.3h3.8
	c0.4,0,0.6-0.3,0.6-0.6v-0.4C96.5,31.9,95.7,31,94,31 M87.9,31.8H90v-0.6h-2.1v-1.7h-0.5l-0.3,1.7l-1.2,0.1v0.5h1.2v4
	c0,1.1,0.3,1.8,1.7,1.8c0.4,0,1.1-0.1,1.6-0.2v-0.5H89c-0.8,0-1.1-0.2-1.1-1.1L87.9,31.8L87.9,31.8z M79.5,34.3c0,2.6,1,3.2,2.7,3.2
	h0.2c1.6,0,2.6-0.7,2.6-3.2c0-2.5-1-3.2-2.6-3.2h-0.2C80.5,31,79.5,31.8,79.5,34.3 M84.2,34.6c0,1.3-0.3,2.2-1.7,2.2h-0.3
	c-1.5,0-1.7-0.9-1.7-2.3v-0.4c0-1.5,0.3-2.3,1.8-2.3h0.3c1.5,0,1.8,0.9,1.8,2.3L84.2,34.6L84.2,34.6z M75.8,36.3l-2.2-5.1h-0.8
	l2.6,6.2h0.8l2.5-6.2h-0.8L75.8,36.3L75.8,36.3z M68,33.6c0-1,0.3-1.9,1.7-1.9h0.4c1.3,0,1.5,0.9,1.5,1.8v0.4H68L68,33.6L68,33.6z
	 M69.9,31c-2.1,0-2.7,1.2-2.7,3.3c0,2.1,0.5,3.1,2.6,3.1c0.6,0,1.5-0.1,2.1-0.2v-0.5h-2c-1.5,0-1.9-0.7-1.9-1.9v-0.3h3.8
	c0.4,0,0.6-0.3,0.6-0.6v-0.4C72.4,31.9,71.6,31,69.9,31 M64.9,31.7v5.1h-1.8c-1.3,0-1.8-0.6-1.8-2.3V34c0-1.3,0.3-2.2,1.8-2.2H64.9z
	 M65.7,28.9h-0.8v2.3C64,31.1,63.5,31,63,31c-1.4,0-2.5,0.5-2.5,3.3c0,2.9,1.1,3.1,2.7,3.1c0.6,0,1.4,0,2.6-0.2L65.7,28.9z
	 M52.7,39.8l3.2-8.7h-0.8l-2,5.4H53l-2.1-5.4h-0.8l2.4,6.2h0.3l-0.9,2.5H52.7z M46.7,31.7c1.5,0,1.8,0.8,1.8,2.2v0.6
	c0,1.7-0.4,2.3-1.8,2.3h-1.8v-5.1H46.7z M44.1,37.3c1.1,0.1,2,0.2,2.6,0.2c1.6,0,2.7-0.4,2.7-3.3c0-2.7-1.1-3.2-2.5-3.2
	c-0.5,0-1,0-1.9,0.2v-2.3h-0.8L44.1,37.3z"/>
<path class="st3" d="M72.8,22.3c3.9,3.6,10.1,3.5,13.9-0.3c3.8-3.8,3.9-9.9,0.3-13.9L72.8,22.3z"/>
<path class="st3" d="M113,16.5c0,4.7-3.8,8.4-8.4,8.4s-8.4-3.8-8.4-8.4s3.8-8.4,8.4-8.4C109.2,8.1,113,11.9,113,16.5"/>
</svg>
