<?xml version="1.0" standalone="no"?>
<!DOCTYPE svg PUBLIC "-//W3C//DTD SVG 20010904//EN"
 "http://www.w3.org/TR/2001/REC-SVG-20010904/DTD/svg10.dtd">
<svg version="1.0" xmlns="http://www.w3.org/2000/svg"
 width="700.000000pt" height="700.000000pt" viewBox="0 0 700.000000 700.000000"
 preserveAspectRatio="xMidYMid meet">
<metadata>
Created by potrace 1.14, written by Peter Selinger 2001-2017
</metadata>
<g transform="translate(0.000000,700.000000) scale(0.100000,-0.100000)"
fill="#000000" stroke="none">
<path d="M3343 6971 c-235 -77 -386 -293 -377 -538 2 -40 9 -91 15 -115 7 -24
13 -45 14 -48 0 -3 14 -32 30 -65 41 -84 149 -190 244 -239 123 -64 158 -118
177 -273 l6 -52 -52 -15 c-74 -22 -128 -56 -184 -115 -109 -118 -139 -271 -82
-429 52 -144 197 -249 357 -257 236 -13 431 171 430 403 0 78 -7 107 -41 180
-48 102 -144 184 -255 217 -33 10 -41 17 -43 41 -7 56 32 187 71 235 7 9 51
40 99 68 189 111 294 276 302 473 14 374 -352 646 -711 529z"/>
<path d="M1905 5579 c-135 -18 -232 -66 -326 -160 -143 -142 -195 -360 -131
-551 73 -219 283 -370 516 -370 344 -1 602 317 531 656 -24 112 -72 197 -163
283 -108 102 -287 162 -427 142z"/>
<path d="M4925 5576 c-254 -62 -427 -290 -419 -552 6 -221 147 -410 364 -489
149 -54 333 -33 465 53 168 108 255 270 255 471 0 77 -17 148 -54 223 -37 76
-44 86 -112 153 -129 128 -326 183 -499 141z"/>
<path d="M2699 4569 c-176 -26 -277 -209 -210 -381 18 -46 88 -114 142 -138
36 -15 76 -22 133 -25 44 -1 100 -8 123 -14 46 -13 134 -68 174 -109 l26 -27
-27 -40 c-81 -122 -111 -264 -86 -417 8 -54 43 -135 80 -191 l34 -50 -42 -39
c-22 -21 -72 -54 -111 -73 -62 -30 -80 -34 -161 -36 -50 -1 -110 -8 -135 -16
-147 -49 -224 -224 -161 -365 82 -187 351 -213 472 -46 37 50 48 90 54 193 6
118 44 205 118 274 30 28 34 29 53 16 199 -141 446 -145 647 -10 l36 24 35
-42 c86 -105 110 -168 112 -282 2 -106 24 -170 78 -222 193 -189 513 -26 463
234 -15 79 -88 168 -165 200 -20 9 -83 19 -141 23 -85 6 -116 12 -161 34 -54
27 -149 102 -149 119 0 4 16 31 35 60 62 93 79 156 79 292 0 109 -2 126 -28
190 -16 39 -42 89 -57 112 -16 23 -29 46 -29 52 0 16 77 77 143 112 54 29 73
33 147 36 150 5 200 22 264 93 49 55 68 101 71 175 8 201 -201 338 -386 253
-58 -26 -117 -87 -140 -143 -6 -17 -15 -78 -19 -136 -9 -122 -37 -192 -105
-265 l-40 -43 -62 38 c-97 60 -160 76 -293 76 -132 0 -196 -18 -297 -86 l-58
-39 -42 47 c-23 25 -56 74 -73 109 -27 55 -31 74 -34 167 -3 86 -8 114 -27
152 -56 112 -164 171 -280 154z"/>
<path d="M445 4033 c-258 -47 -448 -285 -439 -551 9 -288 251 -522 541 -522
201 0 398 120 485 297 18 37 49 84 68 103 43 43 140 78 213 76 49 -1 51 -2 58
-32 21 -103 117 -216 226 -266 115 -53 268 -47 374 15 74 44 132 106 165 177
83 177 30 393 -124 504 -116 85 -293 100 -423 37 -108 -52 -177 -131 -211
-240 l-23 -71 -50 5 c-77 8 -106 16 -150 37 -60 30 -71 43 -114 132 -109 225
-349 345 -596 299z"/>
<path d="M6355 4033 c-172 -34 -315 -147 -388 -305 -45 -98 -124 -147 -263
-164 l-50 -6 -13 44 c-88 295 -435 397 -674 198 -37 -30 -88 -110 -108 -167
-88 -257 84 -522 351 -540 128 -9 235 29 322 114 57 56 111 160 117 226 1 10
102 1 149 -12 80 -24 139 -72 157 -131 4 -14 23 -48 41 -77 123 -193 347 -289
574 -248 19 4 35 6 35 5 0 -1 31 12 69 29 158 72 266 198 310 365 15 58 17
214 3 265 -40 150 -112 249 -241 333 -113 73 -253 98 -391 71z"/>
<path d="M1831 2490 c-196 -52 -343 -199 -395 -396 -22 -84 -16 -230 14 -309
87 -228 291 -368 527 -360 98 3 105 4 184 34 198 75 334 265 344 483 17 359
-326 639 -674 548z"/>
<path d="M4933 2495 c-203 -44 -374 -214 -416 -416 -13 -60 -14 -175 -3 -224
47 -210 215 -377 426 -421 333 -69 649 187 650 527 0 348 -317 606 -657 534z"/>
<path d="M3385 2166 c-182 -57 -299 -215 -294 -397 4 -120 47 -218 133 -298
46 -42 158 -101 192 -101 14 0 16 -9 11 -67 -3 -38 -13 -89 -22 -114 -16 -45
-78 -129 -95 -129 -21 0 -129 -72 -177 -118 -140 -134 -204 -325 -167 -492 7
-30 13 -57 13 -60 17 -104 148 -265 268 -328 356 -187 790 72 796 473 2 127
-40 252 -113 339 -82 98 -128 139 -189 168 -77 36 -106 60 -131 108 -38 75
-61 220 -34 220 37 0 130 43 175 81 93 78 148 184 153 298 8 172 -79 319 -231
392 -59 29 -80 33 -158 35 -51 1 -107 -3 -130 -10z"/>
</g>
</svg>
