<?xml version="1.0" encoding="utf-8"?>
<!-- Generator: Adobe Illustrator 25.4.1, SVG Export Plug-In . SVG Version: 6.00 Build 0)  -->
<svg version="1.1"
	 id="svg2" xmlns:cc="http://creativecommons.org/ns#" xmlns:dc="http://purl.org/dc/elements/1.1/" xmlns:rdf="http://www.w3.org/1999/02/22-rdf-syntax-ns#" xmlns:svg="http://www.w3.org/2000/svg"
	 xmlns="http://www.w3.org/2000/svg" xmlns:xlink="http://www.w3.org/1999/xlink" x="0px" y="0px" viewBox="0 0 180.9 181.2"
	 style="enable-background:new 0 0 180.9 181.2;" xml:space="preserve">
<style type="text/css">
	.st0{fill:#6F2184;}
</style>
<path id="path20" class="st0" d="M60.7,60.7c-5.5,5.5-14.4,5.5-19.9,0s-5.5-14.4,0-19.9c5.5-5.5,14.4-5.5,19.9,0
	C66.2,46.2,66.2,55.2,60.7,60.7"/>
<path id="path22" class="st0" d="M120.5,120.4c5.5-5.5,14.4-5.5,19.9,0c5.5,5.5,5.5,14.4,0,19.9c-5.5,5.5-14.4,5.5-19.9,0
	C115,134.8,115,125.9,120.5,120.4"/>
<path id="path24" class="st0" d="M120.5,40.6c5.5-5.5,14.4-5.5,19.9,0c5.5,5.5,5.5,14.4,0,19.9c-5.5,5.5-14.4,5.5-19.9,0
	C115,55.2,115,46.2,120.5,40.6"/>
<path id="path26" class="st0" d="M40.8,120.4c5.5-5.5,14.4-5.5,19.9,0c5.5,5.5,5.5,14.4,0,19.9c-5.5,5.5-14.4,5.5-19.9,0
	C35.3,134.8,35.3,125.9,40.8,120.4"/>
<path id="path28" class="st0" d="M110.4,103.3c-0.3,0-0.6,0-0.9,0c-3.3,0.3-6.3-2.1-7.3-3.2c0,0-0.3-0.3-0.8-0.8
	c4.4-5.2,4.4-12.8,0-18.2c0.5-0.5,0.8-0.8,0.9-0.9c1.1-1.1,4.3-3.5,7.3-3c0,0,0,0,0.2,0c0.3,0,0.6,0,0.9,0c3.9,0,7.1-3.2,7.1-7.1
	s-3.2-7.1-7.1-7.1s-7.1,3.2-7.1,7.1c0,0.3,0,0.6,0,0.8l0,0c0.3,3.3-1.9,6.3-3,7.3c0,0-0.3,0.3-0.8,0.8c-5.2-4.4-12.9-4.3-18.2,0.2
	c-0.6-0.5-0.9-0.9-0.9-0.9c-1.1-1.1-3.5-4.3-3-7.3c0,0,0,0,0-0.2c0-0.3,0-0.6,0-0.9c0-3.9-3.2-7.1-6.9-7.1c-3.9,0-7.1,3.2-7.1,7.1
	s3.2,7.1,7.1,7.1c0.3,0,0.6,0,0.8,0l0,0c3.3-0.3,6.3,1.9,7.3,3c0,0,0.3,0.3,0.9,0.9c-4.3,5.2-4.3,12.8,0,18
	c-0.6,0.6-0.9,0.9-0.9,0.9c-1.1,1.1-4.3,3.5-7.3,3c0,0,0,0-0.2,0c-0.3,0-0.6,0-0.9,0c-3.9,0-7.1,3.2-7.1,7.1c0,3.9,3.2,6.9,7.1,6.9
	s7.1-3.2,7.1-6.9c0-0.3,0-0.6,0-0.8l0,0c-0.3-3.3,1.9-6.3,3-7.3c0,0,0.3-0.3,0.9-0.9c5.2,4.4,12.9,4.4,18.2,0
	c0.5,0.8,0.8,1.1,0.8,1.1c1.1,1.1,3.5,4.3,3,7.3c0,0,0,0,0,0.2c0,0.3,0,0.6,0,0.9c0,3.9,3.2,6.9,7.1,6.9s7.1-3.2,7.1-6.9
	C117.5,106.5,114.4,103.3,110.4,103.3"/>
<path id="path30" class="st0" d="M38.1,83c-1.7,1.7-2.7,3.8-3,6c-0.2,0-0.2,0-0.3,0c-1.6,0-6-0.3-7.4-3.3c-0.6-1.9-1.7-3.6-3.3-5.1
	c-5.5-5.5-14.4-5.5-19.9,0c-5.5,5.5-5.5,14.4,0,19.9c5.5,5.5,14.4,5.5,19.9,0c1.4-1.4,2.5-3.2,3.2-4.9c1.6-3.2,6.2-3.5,7.7-3.5h0.2
	c0.3,2.1,1.3,4.1,3,5.8c4.1,4.1,10.9,4.1,15,0s4.1-10.7,0-15C49,78.9,42.2,78.9,38.1,83z M95.4,153.7c-3-1.7-3.3-6-3.3-7.6
	c0-0.2,0-0.2,0-0.3c2.2-0.3,4.3-1.3,5.8-3c4.1-4.1,4.1-10.9,0-15c-4.1-4.1-10.9-4.1-15,0c-4.1,4.1-4.1,10.9,0,15
	c1.6,1.6,3.8,2.7,5.8,3c0,0.2,0,0.3,0,0.5c0,1.7-0.5,6.5-3.8,7.7c-0.3,0.2-0.6,0.3-0.8,0.5c-1.3,0.6-2.5,1.6-3.6,2.7
	c-5.5,5.5-5.5,14.4,0,19.9c5.5,5.5,14.4,5.5,19.9,0c5.5-5.5,5.5-14.4,0-19.9C99.1,155.4,97.3,154.3,95.4,153.7z M80.7,4.2
	c-5.5,5.5-5.5,14.4,0,19.9c1.6,1.6,3.3,2.5,5.1,3.3c3,1.7,3.3,6,3.3,7.6c0,0.2,0,0.2,0,0.3c-2.2,0.3-4.3,1.3-5.8,3
	c-4.1,4.1-4.1,10.7,0,15c4.1,4.1,10.9,4.1,15,0c4.1-4.1,4.1-10.9,0-15c-1.6-1.6-3.8-2.7-5.8-3c0-0.2,0-0.3,0-0.5
	c0-1.7,0.5-6.5,3.8-7.7c0.3-0.2,0.6-0.3,0.8-0.5c1.3-0.6,2.5-1.6,3.6-2.7c5.5-5.5,5.5-14.4,0-19.9C95.1-1.4,86.1-1.4,80.7,4.2
	L80.7,4.2z M176.9,80.6c-5.5-5.5-14.4-5.5-19.9,0c-1.4,1.4-2.5,3.2-3.2,4.9c-1.7,3.2-6.2,3.5-7.7,3.5H146c-0.3-2.1-1.3-4.1-3-5.8
	c-4.1-4.1-10.9-4.1-15,0c-4.1,4.1-4.1,10.9,0,15c4.1,4.1,10.9,4.1,15,0c1.7-1.7,2.7-3.8,3-6c0.2,0,0.2,0,0.3,0c1.6,0,6,0.3,7.4,3.3
	c0.6,1.9,1.7,3.6,3.3,5.1c5.5,5.5,14.4,5.5,19.9,0C182.3,95,182.3,86.1,176.9,80.6"/>
</svg>
