<?xml version="1.0" encoding="utf-8"?>
<!-- Generator: Adobe Illustrator 25.4.1, SVG Export Plug-In . SVG Version: 6.00 Build 0)  -->
<svg version="1.1"
	 id="svg2" xmlns:cc="http://creativecommons.org/ns#" xmlns:dc="http://purl.org/dc/elements/1.1/" xmlns:rdf="http://www.w3.org/1999/02/22-rdf-syntax-ns#" xmlns:svg="http://www.w3.org/2000/svg"
	 xmlns="http://www.w3.org/2000/svg" xmlns:xlink="http://www.w3.org/1999/xlink" x="0px" y="0px" viewBox="0 0 1025 512.5"
	 style="enable-background:new 0 0 1025 512.5;" xml:space="preserve">
<style type="text/css">
	.st0{fill:#26853C;}
	.st1{fill:#6F2184;}
	.st2{fill:#FBC31B;}
	.st3{fill:none;}
	.st4{enable-background:new    ;}
</style>
<g>
	<g id="g10" transform="matrix(1.3333333,0,0,-1.3333333,0,181.21333)">
		<g id="g12" transform="scale(0.1)">
			<path id="path14" class="st0" d="M1990.3-681.9L1685.9,21.6c-3.6,7.1-4.7,11.8-4.7,20.1c0,22.5,20.1,43.8,45,43.8
				c22.5,0,37.9-14.2,46.2-34.3L2046-603.7l274.8,657.3c8.3,15.4,23.7,32,43.8,32c24.9,0,43.8-20.1,43.8-42.6
				c0-7.1-1.2-11.8-3.6-17.8l-305.5-707c-10.7-22.5-26.1-36.7-52.1-36.7h-4.7C2016.4-718.6,1999.8-704.4,1990.3-681.9"/>
			<path id="path16" class="st0" d="M2564.7,40.5c0,24.9,20.1,45,43.8,45c24.9,0,45-20.1,45-45v-711.7c0-24.9-20.1-45-45-45
				c-23.7,0-43.8,20.1-43.8,45V40.5"/>
			<path id="path18" class="st0" d="M2837.1-615.6c-10.7,7.1-16.6,18.9-16.6,34.3c0,24.9,18.9,43.8,42.6,43.8
				c11.8,0,21.3-4.7,27.2-10.7c74.6-62.8,149.2-93.6,249.9-93.6c106.6,0,176.5,56.8,176.5,135v2.4c0,73.4-39.1,114.9-204.9,150.4
				c-181.2,39.1-265.3,98.3-265.3,228.6v2.4c0,124.4,109,215.5,259.4,215.5c104.2,0,180-26.1,252.3-78.2
				c9.5-7.1,18.9-18.9,18.9-35.5c0-23.7-18.9-42.6-42.6-42.6c-10.7,0-17.8,2.4-26.1,8.3C3242.1-7,3177,13.2,3103.5,13.2
				c-103,0-168.2-56.8-168.2-127.9v-2.4c0-74.6,40.3-116.1,214.4-154c176.5-37.9,257-103,257-223.8v-2.4
				c0-135-112.5-223.8-270-223.8C3020.6-721,2924.7-685.4,2837.1-615.6"/>
			<path id="path20" class="st1" d="M649.7-53c-41.5-41.4-107.8-41.4-149.2,0s-41.4,107.8,0,149.2c41.5,41.4,107.8,41.4,149.2,0
				C691.1,55.9,691.1-11.6,649.7-53"/>
			<path id="path22" class="st1" d="M1098.5-500.7c41.4,41.5,107.8,41.5,149.2,0c41.4-41.4,41.4-107.8,0-149.2
				c-41.5-41.5-107.8-41.5-149.2,0C1057.1-608.5,1057.1-542.1,1098.5-500.7"/>
			<path id="path24" class="st1" d="M1098.5,97.4c41.4,41.5,107.8,41.5,149.2,0c41.4-41.4,41.4-107.8,0-149.2
				c-41.5-41.4-107.8-41.4-149.2,0C1057.1-11.6,1057.1,55.9,1098.5,97.4"/>
			<path id="path26" class="st1" d="M500.4-500.7c41.5,41.5,107.8,41.5,149.2,0c41.5-41.4,41.5-107.8,0-149.2
				c-41.5-41.5-107.8-41.5-149.2,0C459-608.5,459-542.1,500.4-500.7"/>
			<path id="path28" class="st1" d="M1022.7-372.8c-2.4,0-4.7,0-7.1,0c-24.9-2.4-47.4,15.4-54.5,23.7c0,0-2.4,2.4-5.9,5.9
				c33.2,39.1,33.2,95.9,0,136.2c3.6,3.6,5.9,5.9,7.1,7.1c8.3,8.3,32,26.1,54.5,22.5c0,0,0,0,1.2,0c2.4,0,4.7,0,7.1,0
				c29.6,0,53.3,23.7,53.3,53.3s-23.7,53.3-53.3,53.3c-29.6,0-53.3-23.7-53.3-53.3c0-2.4,0-4.7,0-5.9l0,0
				c2.4-24.9-14.2-47.4-22.5-54.5c0,0-2.4-2.4-5.9-5.9c-39.1,33.2-97.1,32-136.2-1.2c-4.7,3.6-7.1,7.1-7.1,7.1
				c-8.3,8.3-26.1,32-22.5,54.5c0,0,0,0,0,1.2c0,2.4,0,4.7,0,7.1c0,29.6-23.7,53.3-52.1,53.3c-29.6,0-53.3-23.7-53.3-53.3
				s23.7-53.3,53.3-53.3c2.4,0,4.7,0,5.9,0l0,0c24.9,2.4,47.4-14.2,54.5-22.5c0,0,2.4-2.4,7.1-7.1c-32-39.1-32-95.9,0-135
				c-4.7-4.7-7.1-7.1-7.1-7.1c-8.3-8.3-32-26.1-54.5-22.5c0,0,0,0-1.2,0c-2.4,0-4.7,0-7.1,0c-29.6,0-53.3-23.7-53.3-53.3
				c0-29.6,23.7-52.1,53.3-52.1c29.6,0,53.3,23.7,53.3,52.1c0,2.4,0,4.7,0,5.9l0,0c-2.4,24.9,14.2,47.4,22.5,54.5
				c0,0,2.4,2.4,7.1,7.1c39.1-33.2,97.1-33.2,136.2,0c3.6-5.9,5.9-8.3,5.9-8.3c8.3-8.3,26.1-32,22.5-54.5c0,0,0,0,0-1.2
				c0-2.4,0-4.7,0-7.1c0-29.6,23.7-52.1,53.3-52.1c29.6,0,53.3,23.7,53.3,52.1C1076-396.5,1052.3-372.8,1022.7-372.8"/>
			<path id="path30" class="st1" d="M480.3-220c-13-13-20.1-28.4-22.5-45c-1.2,0-1.2,0-2.4,0c-11.8,0-45,2.4-55.7,24.9
				c-4.7,14.2-13,27.2-24.9,37.9c-41.5,41.5-107.8,41.5-149.2,0c-41.4-41.4-41.4-107.8,0-149.2c41.4-41.5,107.8-41.5,149.2,0
				c10.7,10.7,18.9,23.7,23.7,36.7c11.8,23.7,46.2,26.1,58,26.1h1.2c2.4-15.4,9.5-30.8,22.5-43.8c30.8-30.8,81.7-30.8,112.5,0
				s30.8,80.5,0,112.5C562-189.2,511.1-189.2,480.3-220z M910.2-750.6c-22.5,13-24.9,45-24.9,56.8c0,1.2,0,1.2,0,2.4
				c16.6,2.4,32,9.5,43.8,22.5c30.8,30.8,30.8,81.7,0,112.5s-81.7,30.8-112.5,0s-30.8-81.7,0-112.5c11.8-11.9,28.4-20.1,43.8-22.5
				c0-1.2,0-2.4,0-3.5c0-13-3.6-48.6-28.4-58c-2.4-1.2-4.7-2.4-5.9-3.5c-9.5-4.7-18.9-11.8-27.2-20.1c-41.4-41.4-41.4-107.8,0-149.2
				s107.8-41.4,149.2,0c41.4,41.5,41.4,107.8,0,149.2C937.5-763.6,924.4-755.3,910.2-750.6z M800.1,371
				c-41.5-41.4-41.5-107.8,0-149.2c11.8-11.8,24.9-18.9,37.9-24.9c22.5-13,24.9-45,24.9-56.8c0-1.2,0-1.2,0-2.4
				c-16.6-2.4-32-9.5-43.8-22.5c-30.8-30.8-30.8-80.5,0-112.5c30.8-30.8,81.7-30.8,112.5,0s30.8,81.7,0,112.5
				c-11.8,11.8-28.4,20.1-43.8,22.5c0,1.2,0,2.4,0,3.6c0,13,3.6,48.6,28.4,58c2.4,1.2,4.7,2.4,5.9,3.6c9.5,4.7,18.9,11.8,27.2,20.1
				c41.5,41.4,41.5,107.8,0,149.2C907.8,412.4,840.3,412.4,800.1,371L800.1,371z M1521.3-202.3c-41.4,41.5-107.8,41.5-149.2,0
				c-10.7-10.7-18.9-23.7-23.7-36.7c-13-23.7-46.2-26.1-58-26.1h-1.2c-2.4,15.4-9.5,30.8-22.5,43.8c-30.8,30.8-81.7,30.8-112.5,0
				s-30.8-81.7,0-112.5s81.7-30.8,112.5,0c13,13,20.1,28.4,22.5,45c1.2,0,1.2,0,2.4,0c11.8,0,45-2.4,55.7-24.9
				c4.7-14.2,13-27.2,24.9-37.9c41.4-41.5,107.8-41.5,149.2,0C1561.6-310,1561.6-243.7,1521.3-202.3"/>
			<path id="path32" class="st2" d="M3637.7-625l248.7,236.9C3998.9-280.3,4038-219.9,4038-140.6c0,92.4-67.5,150.4-146.9,150.4
				c-77,0-129.1-40.3-181.2-114.9c-5.9-9.5-16.6-15.4-29.6-15.4c-21.3,0-37.9,17.8-37.9,40.3c0,9.5,3.6,17.8,8.3,24.9
				c60.4,91.2,126.7,144.5,246.3,144.5c131.4,0,225-94.7,225-222.6v-2.5c0-114.9-55.7-185.9-183.6-305.6l-194.2-187.1h352.9
				c21.3,0,37.9-17.8,37.9-40.3s-17.8-40.3-37.9-40.3h-438.2c-23.7,0-41.5,16.6-41.5,41.5C3618.7-648.7,3624.6-636.9,3637.7-625"/>
			<path id="path34" class="st2" d="M4788.8-315.9v2.4c0,171.7-87.6,325.7-222.6,325.7c-136.2,0-221.5-150.4-221.5-324.5v-2.4
				c0-171.7,87.6-325.7,223.8-325.7C4704.7-640.4,4788.8-488.8,4788.8-315.9L4788.8-315.9z M4259.4-315.9v2.4
				c0,220.3,122,407.4,309.1,407.4s305.6-184.8,305.6-405v-2.4c0-220.3-120.8-407.4-307.9-407.4
				C4377.9-721,4259.4-536.2,4259.4-315.9"/>
			<path id="path36" class="st2" d="M4993.7-625l248.7,236.9C5354.9-280.3,5394-219.9,5394-140.6c0,92.4-67.5,150.4-146.9,150.4
				c-77,0-129.1-40.3-181.2-114.9c-5.9-9.5-16.6-15.4-29.6-15.4c-21.3,0-37.9,17.8-37.9,40.3c0,9.5,3.6,17.8,8.3,24.9
				c60.4,91.2,126.7,144.5,246.3,144.5c131.5,0,225-94.7,225-222.6v-2.5c0-114.9-55.7-185.9-183.6-305.6l-194.2-187.1h352.9
				c21.3,0,37.9-17.8,37.9-40.3s-17.8-40.3-37.9-40.3h-438.2c-23.7,0-41.5,16.6-41.5,41.5C4973.6-648.7,4979.5-636.9,4993.7-625"/>
			<path id="path38" class="st2" d="M5775.6-5l-104-35.6c-6.7-2.9-13.3-2.9-17.3-2.9c-18.6,0-36,17.1-36,38.5
				c0,18.5,12,31.4,29.3,38.5l121.3,45.6c17.3,5.7,32,10,45.3,10h2.7c24,0,41.3-19.9,41.3-44.2v-715.5c0-24.2-17.3-45.6-41.3-45.6
				c-22.7,0-41.3,19.9-41.3,45.6V-5"/>
		</g>
	</g>
	<rect x="500.9" y="296.5" class="st3" width="524.1" height="92.9"/>
	<g class="st4">
		<path class="st0" d="M538.3,329.6h-3.8l-12,28h-4.8l-12.6-28h-3.8v-5.1H517v5.1h-5l8.4,19.4h0.4l7.3-19.4h-4.5v-5.1h14.7
			L538.3,329.6L538.3,329.6z"/>
		<path class="st0" d="M558.6,357.6h-17.2v-5h5.4v-22.9h-5.6v-5.1h12.1v28h5.3V357.6z M546.3,316.7v-7.6h6.7v7.6H546.3z"/>
		<path class="st0" d="M590.4,347.9c0,3.3-1.4,5.9-4.1,7.7c-2.7,1.8-6.2,2.7-10.4,2.7c-5.1,0-9.4-1.1-13-3.3l1-8l5.1,0.5l-0.1,4.3
			c1,0.5,2.1,0.8,3.2,1c1.2,0.2,2.3,0.3,3.4,0.3c2.1,0,4-0.4,5.7-1.2s2.6-2,2.6-3.7c0-1.6-0.7-2.8-2.1-3.4c-1.4-0.7-3.1-1.2-5.1-1.5
			s-4.1-0.8-6.1-1.3s-3.7-1.4-5.1-2.7c-1.4-1.3-2.1-3.2-2.1-5.7c0-3.7,1.4-6.3,4.1-7.7s5.7-2.1,8.8-2.1c2.3,0,4.4,0.3,6.4,0.9
			s3.8,1.3,5.4,2.2l0.7,8l-5.2,0.6l-0.7-5.2c-2-0.9-4.1-1.4-6.4-1.4c-1.8,0-3.3,0.3-4.5,1s-1.8,1.8-1.8,3.4c0,1.5,0.7,2.6,2,3.3
			c1.4,0.6,3,1.1,5,1.4s4,0.8,6,1.3s3.7,1.5,5,2.7C589.7,343.3,590.4,345.3,590.4,347.9z"/>
		<path class="st0" d="M598.4,321.4c2.1-1,4.4-1.8,6.9-2.3s4.7-0.8,6.8-0.8c5.1,0,8.8,1.2,10.9,3.7c2.1,2.4,3.2,5,3.2,7.7
			c0,3.4-1.2,6.4-3.6,9.1c-2.4,2.7-5.3,5.1-8.7,7.3c-3.4,2.1-6.5,4-9.4,5.7h18.3l0.6-5.4l5.5,0.4l-0.9,10.8h-31.1l-0.6-5.3
			c6.7-4.4,12.1-8.3,16.4-11.6c4.2-3.3,6.4-6.7,6.4-10.2c0-4.3-2.7-6.5-8.1-6.5c-1,0-2.2,0.1-3.6,0.4c-1.4,0.3-2.6,0.7-3.8,1.1
			l-1.2,5.5l-5.3-0.6L598.4,321.4z"/>
		<path class="st0" d="M659,357.6h-23.8v-5.8h8.7v-26.9h-8.7V319h15.5v32.7h8.3V357.6z"/>
		<path class="st0" d="M692.7,346.1c-0.4,2.9-1.7,5.7-3.9,8.3c-2.2,2.6-5.7,3.9-10.5,3.9c-4.6,0-8.4-1.4-11.2-4.3s-4.3-7-4.3-12.4
			c0-5,1.4-9.2,4.2-12.6s6.7-5.1,11.8-5.1c2.1,0,4.1,0.2,6,0.7s3.7,1.4,5.5,2.6l1.3,8.6l-5.3,0.6l-1.2-5.5c-1.9-1.1-4-1.6-6.4-1.6
			c-3.1,0-5.4,1.1-6.9,3.4c-1.5,2.2-2.2,5.1-2.2,8.7c0,3.7,0.8,6.6,2.4,8.7c1.6,2.1,3.9,3.1,7,3.1c4.6,0,7.3-2.7,8.2-8L692.7,346.1z
			"/>
		<path class="st0" d="M733.5,340.2c0,4.5-1.2,8.7-3.6,12.5c-2.4,3.8-6.3,5.7-11.5,5.7c-4.9,0-8.4-1.8-10.7-5.4v15.2h7.2v5.2h-19
			v-5.2h5.4v-38.6h-5.6v-5.1h12.1v6.7c1-2,2.4-3.7,4.2-5.2s4.3-2.2,7.3-2.2c4.2,0,7.7,1.4,10.3,4.3S733.5,335.1,733.5,340.2z
			 M726.7,340.8c0-3.8-0.9-6.7-2.6-8.7c-1.8-2-4-3-6.8-3s-5.1,1.1-6.8,3.3c-1.7,2.2-2.6,4.6-2.7,7.2l-0.1,3.8c0,2.8,0.9,5,2.7,6.8
			s4,2.7,6.6,2.7c3.3,0,5.8-1.2,7.4-3.5S726.7,344.2,726.7,340.8z"/>
		<path class="st0" d="M777.1,357.6h-17.2v-5h5.4v-14.3c0-3.4-0.7-5.7-2-7.1s-3.1-2.1-5.3-2.1c-2.7,0-4.8,0.9-6.4,2.7
			c-1.6,1.8-2.5,3.9-2.6,6.2v14.7h5.4v5h-17.2v-5h5.3v-40.8h-5.3v-5.1H749v23.5c2.4-4.2,6.2-6.4,11.3-6.4c3.2,0,5.9,1,8.1,3
			c2.2,2,3.3,5.1,3.3,9.2v16.5h5.3v5H777.1z"/>
	</g>
	<g class="st4">
		<path class="st1" d="M787.5,357.6v-9.2h8.4v9.2H787.5z"/>
		<path class="st1" d="M819.4,357.6h-17.2v-5h5.4v-22.9H802v-5.1h12v28h5.3v5H819.4z M807.1,316.7v-7.6h6.7v7.6H807.1z"/>
		<path class="st1" d="M848.8,348.2c-0.9,6.7-4.6,10.1-11.1,10.1c-3.4,0-6.1-0.9-8-2.8c-1.9-1.8-2.8-4.4-2.8-7.7v-18.4h-5.1v-5h5.1
			V314h6.4v10.4H846v5h-12.7v17.4c0,3.9,1.7,5.9,5.1,5.9c1.1,0,2.2-0.4,3.3-1.1s1.8-2.4,2.3-5L848.8,348.2z"/>
		<path class="st1" d="M889.8,357.6h-12.1v-5.9c-2.3,4.4-6,6.7-11.2,6.7c-3.2,0-5.9-1-8.2-3c-2.2-2-3.4-5.1-3.4-9.3v-16.4h-5.3v-5.1
			h11.8V344c0,3.4,0.7,5.7,2,7.1s3.1,2.1,5.3,2.1c2.7,0,4.8-1,6.4-2.9c1.6-1.9,2.5-4.1,2.5-6.5v-14.1h-6.4v-5.1h13v28h5.5v5H889.8z"
			/>
		<path class="st1" d="M894.7,357.6v-9.2h8.4v9.2H894.7z"/>
		<path class="st1" d="M946.9,357.6h-11.8v-6.5c-1,2-2.5,3.7-4.3,5.1c-1.9,1.4-4.3,2.1-7.4,2.1c-4.3,0-7.7-1.5-10.3-4.4
			s-3.8-7-3.8-12.1c0-4.5,1.2-8.7,3.5-12.4c2.3-3.7,6.1-5.6,11.4-5.6c5.1,0,8.7,2,11,5.9v-18h-7.6v-5.1h14.1v45.9h5.3v5.1H946.9z
			 M935.2,342.3v-4c-0.1-2.8-1-5-2.8-6.7s-3.9-2.5-6.4-2.5c-3.2,0-5.6,1.2-7.3,3.6s-2.5,5.3-2.5,8.7c0,3.8,0.9,6.6,2.7,8.6
			s4,3,6.6,3c2.8,0,5.1-1.2,6.9-3.5C934.1,347.2,935.1,344.8,935.2,342.3z"/>
		<path class="st1" d="M986.3,357.6h-16.1v-5h4.4l-8.1-9.9H961v9.9h4.3v5h-16.1v-5h5.3v-40.8H949v-5.1h12v31.2h5.8l6.8-8.3h-4.8
			v-5.1h15.8v5.1H980l-8.4,10.1l10.5,12.9h4.1v5H986.3z"/>
	</g>
</g>
</svg>
