<?xml version="1.0" encoding="utf-8"?>
<!-- Generator: Adobe Illustrator 25.4.1, SVG Export Plug-In . SVG Version: 6.00 Build 0)  -->
<svg version="1.1"
	 id="svg2" xmlns:cc="http://creativecommons.org/ns#" xmlns:dc="http://purl.org/dc/elements/1.1/" xmlns:rdf="http://www.w3.org/1999/02/22-rdf-syntax-ns#" xmlns:svg="http://www.w3.org/2000/svg"
	 xmlns="http://www.w3.org/2000/svg" xmlns:xlink="http://www.w3.org/1999/xlink" x="0px" y="0px" viewBox="0 0 755.2 229.3"
	 style="enable-background:new 0 0 755.2 229.3;" xml:space="preserve">
<style type="text/css">
	.st0{fill:#26853C;}
	.st1{fill:#6F2184;}
	.st2{fill:#FBC31B;}
</style>
<g id="g10" transform="matrix(1.3333333,0,0,-1.3333333,0,181.21333)">
	<g id="g12" transform="scale(0.1)">
		<path id="path14" class="st0" d="M1795.7,275l-304.4,703.5c-3.6,7.1-4.7,11.8-4.7,20.1c0,22.5,20.1,43.8,45,43.8
			c22.5,0,37.9-14.2,46.2-34.3l273.6-654.9l274.8,657.3c8.3,15.4,23.7,32,43.8,32c24.9,0,43.8-20.1,43.8-42.6
			c0-7.1-1.2-11.8-3.6-17.8l-305.5-707c-10.7-22.5-26.1-36.7-52.1-36.7h-4.7C1821.8,238.3,1805.2,252.5,1795.7,275"/>
		<path id="path16" class="st0" d="M2370.1,997.4c0,24.9,20.1,45,43.8,45c24.9,0,45-20.1,45-45V285.7c0-24.9-20.1-45-45-45
			c-23.7,0-43.8,20.1-43.8,45V997.4"/>
		<path id="path18" class="st0" d="M2642.5,341.3c-10.7,7.1-16.6,18.9-16.6,34.3c0,24.9,18.9,43.8,42.6,43.8
			c11.8,0,21.3-4.7,27.2-10.7c74.6-62.8,149.2-93.6,249.9-93.6c106.6,0,176.5,56.8,176.5,135v2.4c0,73.4-39.1,114.9-204.9,150.4
			c-181.2,39.1-265.3,98.3-265.3,228.6v2.4c0,124.4,109,215.5,259.4,215.5c104.2,0,180-26.1,252.3-78.2c9.5-7.1,18.9-18.9,18.9-35.5
			c0-23.7-18.9-42.6-42.6-42.6c-10.7,0-17.8,2.4-26.1,8.3c-66.3,48.5-131.4,68.7-204.9,68.7c-103,0-168.2-56.8-168.2-127.9v-2.4
			c0-74.6,40.3-116.1,214.4-154c176.5-37.9,257-103,257-223.8v-2.4c0-135-112.5-223.8-270-223.8
			C2826,235.9,2730.1,271.5,2642.5,341.3"/>
		<path id="path20" class="st1" d="M455.1,903.9c-41.5-41.4-107.8-41.4-149.2,0s-41.4,107.8,0,149.2c41.5,41.4,107.8,41.4,149.2,0
			C496.5,1012.8,496.5,945.3,455.1,903.9"/>
		<path id="path22" class="st1" d="M903.9,456.2c41.4,41.5,107.8,41.5,149.2,0c41.4-41.4,41.4-107.8,0-149.2
			c-41.5-41.5-107.8-41.5-149.2,0C862.5,348.4,862.5,414.8,903.9,456.2"/>
		<path id="path24" class="st1" d="M903.9,1054.3c41.4,41.5,107.8,41.5,149.2,0c41.4-41.4,41.4-107.8,0-149.2
			c-41.5-41.4-107.8-41.4-149.2,0C862.5,945.3,862.5,1012.8,903.9,1054.3"/>
		<path id="path26" class="st1" d="M305.8,456.2c41.5,41.5,107.8,41.5,149.2,0c41.5-41.4,41.5-107.8,0-149.2
			c-41.5-41.5-107.8-41.5-149.2,0C264.4,348.4,264.4,414.8,305.8,456.2"/>
		<path id="path28" class="st1" d="M828.1,584.1c-2.4,0-4.7,0-7.1,0c-24.9-2.4-47.4,15.4-54.5,23.7c0,0-2.4,2.4-5.9,5.9
			c33.2,39.1,33.2,95.9,0,136.2c3.6,3.6,5.9,5.9,7.1,7.1c8.3,8.3,32,26.1,54.5,22.5c0,0,0,0,1.2,0c2.4,0,4.7,0,7.1,0
			c29.6,0,53.3,23.7,53.3,53.3s-23.7,53.3-53.3,53.3s-53.3-23.7-53.3-53.3c0-2.4,0-4.7,0-5.9l0,0c2.4-24.9-14.2-47.4-22.5-54.5
			c0,0-2.4-2.4-5.9-5.9c-39.1,33.2-97.1,32-136.2-1.2c-4.7,3.6-7.1,7.1-7.1,7.1c-8.3,8.3-26.1,32-22.5,54.5c0,0,0,0,0,1.2
			c0,2.4,0,4.7,0,7.1c0,29.6-23.7,53.3-52.1,53.3c-29.6,0-53.3-23.7-53.3-53.3s23.7-53.3,53.3-53.3c2.4,0,4.7,0,5.9,0l0,0
			c24.9,2.4,47.4-14.2,54.5-22.5c0,0,2.4-2.4,7.1-7.1c-32-39.1-32-95.9,0-135c-4.7-4.7-7.1-7.1-7.1-7.1c-8.3-8.3-32-26.1-54.5-22.5
			c0,0,0,0-1.2,0c-2.4,0-4.7,0-7.1,0c-29.6,0-53.3-23.7-53.3-53.3c0-29.6,23.7-52.1,53.3-52.1c29.6,0,53.3,23.7,53.3,52.1
			c0,2.4,0,4.7,0,5.9l0,0c-2.4,24.9,14.2,47.4,22.5,54.5c0,0,2.4,2.4,7.1,7.1c39.1-33.2,97.1-33.2,136.2,0c3.6-5.9,5.9-8.3,5.9-8.3
			c8.3-8.3,26.1-32,22.5-54.5c0,0,0,0,0-1.2c0-2.4,0-4.7,0-7.1c0-29.6,23.7-52.1,53.3-52.1s53.3,23.7,53.3,52.1
			C881.4,560.4,857.7,584.1,828.1,584.1"/>
		<path id="path30" class="st1" d="M285.7,736.9c-13-13-20.1-28.4-22.5-45c-1.2,0-1.2,0-2.4,0c-11.8,0-45,2.4-55.7,24.9
			c-4.7,14.2-13,27.2-24.9,37.9c-41.5,41.5-107.8,41.5-149.2,0c-41.4-41.4-41.4-107.8,0-149.2c41.4-41.5,107.8-41.5,149.2,0
			c10.7,10.7,18.9,23.7,23.7,36.7c11.8,23.7,46.2,26.1,58,26.1h1.2c2.4-15.4,9.5-30.8,22.5-43.8c30.8-30.8,81.7-30.8,112.5,0
			s30.8,80.5,0,112.5C367.4,767.7,316.5,767.7,285.7,736.9z M715.6,206.3c-22.5,13-24.9,45-24.9,56.8c0,1.2,0,1.2,0,2.4
			c16.6,2.4,32,9.5,43.8,22.5c30.8,30.8,30.8,81.7,0,112.5c-30.8,30.8-81.7,30.8-112.5,0s-30.8-81.7,0-112.5
			c11.8-11.9,28.4-20.1,43.8-22.5c0-1.2,0-2.4,0-3.5c0-13-3.6-48.6-28.4-58c-2.4-1.2-4.7-2.4-5.9-3.5c-9.5-4.7-18.9-11.8-27.2-20.1
			c-41.4-41.4-41.4-107.8,0-149.2s107.8-41.4,149.2,0c41.4,41.5,41.4,107.8,0,149.2C742.9,193.3,729.8,201.6,715.6,206.3z
			 M605.5,1327.9c-41.5-41.4-41.5-107.8,0-149.2c11.8-11.8,24.9-18.9,37.9-24.9c22.5-13,24.9-45,24.9-56.8c0-1.2,0-1.2,0-2.4
			c-16.6-2.4-32-9.5-43.8-22.5c-30.8-30.8-30.8-80.5,0-112.5c30.8-30.8,81.7-30.8,112.5,0c30.8,30.8,30.8,81.7,0,112.5
			c-11.8,11.8-28.4,20.1-43.8,22.5c0,1.2,0,2.4,0,3.6c0,13,3.6,48.6,28.4,58c2.4,1.2,4.7,2.4,5.9,3.6c9.5,4.7,18.9,11.8,27.2,20.1
			c41.5,41.4,41.5,107.8,0,149.2C713.2,1369.3,645.7,1369.3,605.5,1327.9L605.5,1327.9z M1326.7,754.6
			c-41.4,41.5-107.8,41.5-149.2,0c-10.7-10.7-18.9-23.7-23.7-36.7c-13-23.7-46.2-26.1-58-26.1h-1.2c-2.4,15.4-9.5,30.8-22.5,43.8
			c-30.8,30.8-81.7,30.8-112.5,0c-30.8-30.8-30.8-81.7,0-112.5s81.7-30.8,112.5,0c13,13,20.1,28.4,22.5,45c1.2,0,1.2,0,2.4,0
			c11.8,0,45-2.4,55.7-24.9c4.7-14.2,13-27.2,24.9-37.9c41.4-41.5,107.8-41.5,149.2,0C1367,646.9,1367,713.2,1326.7,754.6"/>
		<path id="path32" class="st2" d="M3443.1,331.9l248.7,236.9c112.5,107.8,151.6,168.2,151.6,247.5c0,92.4-67.5,150.4-146.9,150.4
			c-77,0-129.1-40.3-181.2-114.9c-5.9-9.5-16.6-15.4-29.6-15.4c-21.3,0-37.9,17.8-37.9,40.3c0,9.5,3.6,17.8,8.3,24.9
			c60.4,91.2,126.7,144.5,246.3,144.5c131.4,0,225-94.7,225-222.6V821c0-114.9-55.7-185.9-183.6-305.6l-194.2-187.1h352.9
			c21.3,0,37.9-17.8,37.9-40.3s-17.8-40.3-37.9-40.3h-438.2c-23.7,0-41.5,16.6-41.5,41.5C3424.1,308.2,3430,320,3443.1,331.9"/>
		<path id="path34" class="st2" d="M4594.2,641v2.4c0,171.7-87.6,325.7-222.6,325.7c-136.2,0-221.5-150.4-221.5-324.5v-2.4
			c0-171.7,87.6-325.7,223.8-325.7C4510.1,316.5,4594.2,468.1,4594.2,641L4594.2,641z M4064.8,641v2.4
			c0,220.3,122,407.4,309.1,407.4s305.6-184.8,305.6-405v-2.4c0-220.3-120.8-407.4-307.9-407.4
			C4183.3,235.9,4064.8,420.7,4064.8,641"/>
		<path id="path36" class="st2" d="M4799.1,331.9l248.7,236.9c112.5,107.8,151.6,168.2,151.6,247.5c0,92.4-67.5,150.4-146.9,150.4
			c-77,0-129.1-40.3-181.2-114.9c-5.9-9.5-16.6-15.4-29.6-15.4c-21.3,0-37.9,17.8-37.9,40.3c0,9.5,3.6,17.8,8.3,24.9
			c60.4,91.2,126.7,144.5,246.3,144.5c131.5,0,225-94.7,225-222.6V821c0-114.9-55.7-185.9-183.6-305.6l-194.2-187.1h352.9
			c21.3,0,37.9-17.8,37.9-40.3s-17.8-40.3-37.9-40.3h-438.2c-23.7,0-41.5,16.6-41.5,41.5C4779,308.2,4784.9,320,4799.1,331.9"/>
		<path id="path38" class="st2" d="M5581,951.9l-104-35.6c-6.7-2.9-13.3-2.9-17.3-2.9c-18.6,0-36,17.1-36,38.5
			c0,18.5,12,31.4,29.3,38.5l121.3,45.6c17.3,5.7,32,10,45.3,10h2.7c24,0,41.3-19.9,41.3-44.2V286.3c0-24.2-17.3-45.6-41.3-45.6
			c-22.7,0-41.3,19.9-41.3,45.6V951.9"/>
	</g>
</g>
<g>
	<path class="st0" d="M350.9,190.3h-3.4l-10.7,24.9h-4.3l-11.2-24.9h-3.4v-4.6H332v4.6h-4.4l7.5,17.3h0.4l6.5-17.3h-4v-4.6h13.1v4.6
		H350.9z"/>
	<path class="st0" d="M369.7,215.2h-15.4v-4.5h4.8v-20.5h-5v-4.6h10.8v25h4.8L369.7,215.2L369.7,215.2z M358.7,178.8V172h6v6.8
		H358.7z"/>
	<path class="st0" d="M398.6,206.6c0,2.9-1.2,5.2-3.7,6.9c-2.4,1.6-5.5,2.4-9.3,2.4c-4.5,0-8.4-1-11.6-2.9l0.9-7.1l4.6,0.5l-0.1,3.8
		c0.9,0.4,1.8,0.7,2.9,0.9c1,0.2,2.1,0.3,3.1,0.3c1.9,0,3.6-0.4,5.1-1.1c1.5-0.7,2.3-1.8,2.3-3.3s-0.6-2.5-1.8-3.1
		c-1.2-0.6-2.8-1-4.6-1.4c-1.8-0.3-3.6-0.7-5.4-1.2s-3.3-1.3-4.6-2.4c-1.2-1.1-1.8-2.8-1.8-5.1c0-3.3,1.2-5.6,3.7-6.9
		c2.4-1.3,5-1.9,7.8-1.9c2,0,3.9,0.3,5.7,0.8c1.8,0.5,3.4,1.2,4.9,1.9l0.7,7.1l-4.6,0.5l-0.7-4.6c-1.8-0.8-3.7-1.3-5.7-1.3
		c-1.6,0-3,0.3-4,0.9c-1.1,0.6-1.6,1.6-1.6,3s0.6,2.3,1.8,2.9c1.2,0.6,2.7,1,4.5,1.3s3.6,0.7,5.3,1.2s3.3,1.3,4.5,2.4
		C398,202.5,398.6,204.2,398.6,206.6z"/>
	<path class="st0" d="M406.5,182.9c1.9-0.9,3.9-1.6,6.1-2.1s4.2-0.7,6.1-0.7c4.6,0,7.8,1.1,9.7,3.3c1.9,2.2,2.8,4.5,2.8,6.9
		c0,3-1.1,5.7-3.2,8.1c-2.2,2.4-4.7,4.6-7.8,6.5s-5.8,3.6-8.3,5h16.3l0.5-4.8l4.9,0.4l-0.8,9.6h-27.7l-0.5-4.7
		c5.9-4,10.8-7.4,14.6-10.3c3.8-2.9,5.7-6,5.7-9.1c0-3.9-2.4-5.8-7.3-5.8c-0.9,0-1.9,0.1-3.2,0.4c-1.2,0.2-2.4,0.6-3.4,1l-1.1,4.9
		l-4.7-0.5L406.5,182.9z"/>
	<path class="st0" d="M461.1,215.2h-21.2V210h7.8v-24h-7.8v-5.2h13.8V210h7.4L461.1,215.2L461.1,215.2z"/>
	<path class="st0" d="M491.9,205c-0.4,2.6-1.5,5.1-3.5,7.4c-2,2.3-5.1,3.5-9.3,3.5c-4.1,0-7.5-1.3-10-3.9s-3.8-6.3-3.8-11.1
		c0-4.4,1.3-8.2,3.8-11.3s6-4.6,10.5-4.6c1.8,0,3.6,0.2,5.3,0.7s3.3,1.2,4.9,2.3l1.2,7.7l-4.7,0.5l-1.1-4.9c-1.7-1-3.6-1.5-5.7-1.5
		c-2.8,0-4.8,1-6.1,3c-1.3,2-2,4.6-2,7.8c0,3.3,0.7,5.9,2.1,7.7s3.5,2.8,6.2,2.8c4.1,0,6.5-2.4,7.3-7.1L491.9,205z"/>
	<path class="st0" d="M528.9,199.7c0,4-1.1,7.8-3.2,11.1c-2.2,3.4-5.6,5-10.3,5c-4.4,0-7.5-1.6-9.5-4.8v13.6h6.4v4.6h-17v-4.6h4.8
		v-34.4h-5v-4.6h10.8v6c0.9-1.8,2.1-3.3,3.8-4.6c1.6-1.3,3.8-2,6.5-2c3.8,0,6.9,1.3,9.2,3.9C527.7,191.6,528.9,195.1,528.9,199.7z
		 M522.8,200.2c0-3.4-0.8-6-2.3-7.7c-1.6-1.8-3.6-2.6-6-2.6c-2.5,0-4.5,1-6.1,3c-1.5,2-2.4,4.1-2.4,6.4l-0.1,3.4
		c0,2.5,0.8,4.5,2.4,6.1s3.5,2.4,5.9,2.4c2.9,0,5.1-1,6.6-3.1S522.8,203.3,522.8,200.2z"/>
	<path class="st0" d="M568.4,215.2H553v-4.5h4.8V198c0-3-0.6-5.1-1.8-6.4c-1.2-1.3-2.8-1.9-4.7-1.9c-2.4,0-4.3,0.8-5.7,2.4
		c-1.5,1.6-2.2,3.4-2.3,5.5v13.1h4.8v4.5h-15.3v-4.5h4.8v-36.4h-4.8v-4.6h10.5v21c2.2-3.8,5.5-5.7,10.1-5.7c2.9,0,5.3,0.9,7.3,2.6
		c2,1.8,3,4.5,3,8.2v14.7h4.8L568.4,215.2L568.4,215.2z"/>
	<path class="st1" d="M573.1,215.2V207h7.5v8.2H573.1z"/>
	<path class="st1" d="M602.2,215.2h-15.4v-4.5h4.8v-20.5h-5v-4.6h10.8v25h4.8L602.2,215.2L602.2,215.2z M591.3,178.8V172h6v6.8
		H591.3z"/>
	<path class="st1" d="M629.2,206.9c-0.8,6-4.1,9-9.9,9c-3,0-5.4-0.8-7.1-2.5c-1.7-1.6-2.5-3.9-2.5-6.9v-16.4h-4.6v-4.4h4.6v-9.3h5.7
		v9.3h11.3v4.4h-11.3v15.5c0,3.5,1.5,5.3,4.6,5.3c1,0,1.9-0.3,2.9-1c1-0.6,1.6-2.1,2-4.5L629.2,206.9z"/>
	<path class="st1" d="M666.4,215.2h-10.8v-5.3c-2,4-5.3,5.9-10,5.9c-2.9,0-5.3-0.9-7.3-2.6c-2-1.8-3-4.5-3-8.3v-14.7h-4.8v-4.6h10.6
		V203c0,3,0.6,5.1,1.7,6.3c1.2,1.2,2.7,1.8,4.7,1.8c2.4,0,4.3-0.9,5.7-2.6s2.2-3.7,2.2-5.8v-12.5h-5.7v-4.6h11.5v25h5v4.6H666.4z"/>
	<path class="st1" d="M671.4,215.2V207h7.5v8.2H671.4z"/>
	<path class="st1" d="M718.7,215.2h-10.5v-5.8c-0.9,1.8-2.2,3.3-3.9,4.6c-1.6,1.3-3.8,1.9-6.6,1.9c-3.8,0-6.9-1.3-9.2-3.9
		c-2.3-2.6-3.4-6.2-3.4-10.8c0-4,1-7.7,3.1-11.1c2.1-3.3,5.5-5,10.1-5c4.5,0,7.8,1.8,9.8,5.3v-16h-6.8v-4.6h12.5v40.9h4.8v4.5
		L718.7,215.2L718.7,215.2z M708.2,201.6V198c-0.1-2.5-0.9-4.4-2.5-5.9s-3.5-2.2-5.7-2.2c-2.9,0-5,1.1-6.5,3.2
		c-1.5,2.1-2.2,4.7-2.2,7.8c0,3.3,0.8,5.9,2.4,7.7c1.6,1.8,3.5,2.6,5.9,2.6c2.5,0,4.6-1,6.2-3.1C707.2,206,708.1,203.8,708.2,201.6z
		"/>
	<path class="st1" d="M754.4,215.2h-14.3v-4.5h4l-7.2-8.8h-5v8.8h3.8v4.5h-14.3v-4.5h4.8v-36.4h-5v-4.6h10.7v27.9h5.2l6.1-7.4h-4.3
		v-4.6H753v4.6h-4.1l-7.5,9l9.4,11.5h3.7v4.5L754.4,215.2L754.4,215.2z"/>
</g>
</svg>
